<svg xmlns="http://www.w3.org/2000/svg" viewBox="0 0 96 96" role="img" aria-label="Shimla Wale">
  <g transform="scale(1)">
    <defs>
      <linearGradient id="mk-g" x1="0" y1="0" x2="1" y2="1">
        <stop offset="0" stop-color="#f3d58a"/>
        <stop offset="0.55" stop-color="#d4a64a"/>
        <stop offset="1" stop-color="#f08a24"/>
      </linearGradient>
      <radialGradient id="mk-bg" cx="0.5" cy="0.35" r="0.7">
        <stop offset="0" stop-color="#1a2a5a"/>
        <stop offset="1" stop-color="#0f1b3d"/>
      </radialGradient>
    </defs>
    <circle cx="48" cy="48" r="46" fill="url(#mk-bg)"/>
    <circle cx="48" cy="48" r="44" fill="none" stroke="url(#mk-g)" stroke-width="2.5"/>
    <circle cx="48" cy="48" r="39" fill="none" stroke="#d4a64a" stroke-opacity="0.35" stroke-width="0.8" stroke-dasharray="1.5 3"/>
    <!-- sound waves -->
    <g fill="none" stroke="url(#mk-g)" stroke-linecap="round">
      <path d="M26 36 Q20 46 26 56" stroke-width="3"/>
      <path d="M19 31 Q10 46 19 61" stroke-width="2.2" stroke-opacity="0.7"/>
      <path d="M70 36 Q76 46 70 56" stroke-width="3"/>
      <path d="M77 31 Q86 46 77 61" stroke-width="2.2" stroke-opacity="0.7"/>
    </g>
    <!-- microphone -->
    <rect x="39" y="20" width="18" height="32" rx="9" fill="url(#mk-g)"/>
    <g stroke="#0f1b3d" stroke-opacity="0.45" stroke-width="1.2">
      <line x1="41" y1="29" x2="55" y2="29"/><line x1="41" y1="34" x2="55" y2="34"/><line x1="41" y1="39" x2="55" y2="39"/>
    </g>
    <path d="M33 44 Q33 60 48 60 Q63 60 63 44" fill="none" stroke="url(#mk-g)" stroke-width="3" stroke-linecap="round"/>
    <line x1="48" y1="60" x2="48" y2="70" stroke="url(#mk-g)" stroke-width="3" stroke-linecap="round"/>
    <path d="M38 72 H58" stroke="url(#mk-g)" stroke-width="3.2" stroke-linecap="round"/>
  </g></svg>